<svg id="svg" version="1.1" width="180" height="180" xmlns="http://www.w3.org/2000/svg" xmlns:xlink="http://www.w3.org/1999/xlink" ><g id="svgg"><path id="path0" d="M36.950 74.337 C 23.824 79.072,12.866 88.964,6.111 102.177 L 0.000 114.130 0.049 202.065 C 0.107 306.949,1.227 311.421,31.279 326.752 C 45.063 333.784,292.201 333.502,305.588 326.439 C 330.235 313.437,336.664 299.887,336.666 260.942 L 336.667 231.884 366.746 254.831 C 383.289 267.452,397.539 277.778,398.412 277.778 C 399.285 277.778,400.000 241.278,400.000 196.667 C 400.000 152.056,399.250 115.576,398.333 115.600 C 397.417 115.625,385.667 124.233,372.222 134.730 C 358.778 145.228,345.278 155.593,342.222 157.764 L 336.667 161.711 336.623 139.189 C 336.559 105.845,328.237 89.121,305.707 77.061 C 294.105 70.851,53.380 68.411,36.950 74.337 M199.509 129.102 C 222.336 136.956,247.483 153.696,284.051 185.382 L 304.768 203.333 292.939 214.011 C 192.581 304.611,139.583 304.883,40.438 215.310 L 29.098 205.064 33.998 200.866 C 119.099 127.951,153.194 113.168,199.509 129.102 M74.622 193.137 C 65.294 203.444,76.899 219.067,90.365 214.331 C 104.710 209.286,101.090 188.889,85.849 188.889 C 81.403 188.889,76.938 190.578,74.622 193.137 " stroke="none" fill="#000000" fill-rule="evenodd"></path></g></svg>